<svg xmlns="http://www.w3.org/2000/svg" viewBox="0 0 5000 3478">
  <defs/>
  <path fill="none" stroke="#000" d="M1456 3472l-12 .91-23 1.18-12 .91h-32l-17 1h-58l-17 1h-60l-15 1h-210c-14.02-.02-40.47-3.64-55-5.73-34.54-4.98-68.99-11.81-103-19.62-128.42-29.47-263.07-93.62-370-170.08L426 3246l-34-27.58-13-10.59-20-19.83-10-9.09-12-11.82-34-31.13-30.04-30.96-36.05-37c-33.65-36.12-66.09-72.84-96.26-112l-27.07-38-55.92-80-40.99-60c-5.55-8.32-15.35-21.08-16.33-31-.91-9.18 7.06-18.67 12.83-25l8.25-8.17L62 2674.05c5.35-4.74 11.02-9.12 17-13.05 2.62-1.71 5.71-4.17 9-2.87 2.01.79 15.43 13.41 18 15.84l30 25.15 74 54.3 29 22.15 27 17.23c35.12 21.21 72.11 39.6 109 57.46 90.67 43.89 177.41 77.19 277 95.16l64 10.41 32 2.26 51 3.91 10 .91 29 1.09c11.65-.14 32.61-4.33 44-7.58 47.7-13.61 100.05-46.4 116.92-95.42 5.12-14.86 6.1-30.48 7.17-46l1.91-24v-33l1-15v-34l1-17v-174-96l-1-15v-8l-1-15-1-21v-18l-1-15-2-100-1-17-1-61-1-15v-22l-1-17-1-29-1-15-1-21v-20l-1-15-4-177-1-14-1.09-33-1.91-29v-62l-1.91-27-1.18-24-.91-12-1-60-1-17v-23l-1-15-2-98-1-15v-24l-1-17-1-59-1-15v-11l-3-39v-46l-1-17v-21l-1-16v-22l-1-13v-20l-1-17-1-23-1-16v-26l-2-35-1-16v-87l-1.83-24-1.26-22-.91-12v-10l-1-13v-25l-1-15v-22l-1-17v-63l-1.83-23-1.26-21-.91-12-1-87-1-16v-36l-1-17-2-33v-9l-1.04-12v-17l-.96-11v-20l-1-17v-20l-1-16v-40l-.97-12 .97-14c.03-20.66 2.74-41.25 9.03-61 10.08-31.7 22.41-45.46 44.93-69L1010 52.01c16.85-16.44 35.66-28.21 58-35.66 11.76-3.91 32.69-8.2 45-8.35l22-1 13-1 21-1 15-1h45l35-2 17-1h65l17-1h67c17.1.2 44.26 9.18 60 16.14 14.72 6.51 27.48 14.56 40 24.66 12.73 10.28 19.37 17.25 29.35 30.2 21.32 27.67 37.6 68.75 37.65 104v73l-.91 12-1.18 25-.91 12v25l-1 15v34l-1 15v32l-1 15v23l-1 15v14l-1.04 16v16l-1 12v15l-.96 12-1 37-1 13v15l-1 16v32l-1 15-1 77-.96 12v12l-1.04 13-1 27-1 15v27l-1 21-1 10v12l-1 12v86l-3 43v34l-2 31v26l-1 16v15l-1 16v14l-1 16-1 39-1 17v23l-1 17-1 65-1 15v15l-1.04 16v14l-1 12v13l-.96 11v15l-1 17-2 96-1 17v21l-1 16v22l-1 14v20l-3 40v91l-4 52v82l-3 46v48l-1.83 23-1.17 25-1 15-1 76-1 17v26l-2 34v4l-1 19-1 15v58l-1 17-1 21-1 14v15l-1 16-1 55-1 17v174l1 15v4l.68 8-.68 19-1 15v697h-71zM2742 68l7.42 1.02 3.16 8.98 5.3 24 25.47 114 63.3 279 46.77 205 32.93 144 75 329 209 917 62.3 274 36.93 162 33.54 145 11.23 48 6.65 26 7.12-34 9.46-42 34-154 98-445 216.84-983 87.37-397 69.79-317 22-100 13.55-62 22.99-101 6.25-24 4.19-11.42 9.44-2.98 24-3.6h1014v3388h-697V1656v-552-169-31l-1-15v-14l-1-15-1-12-5.58 28-10 46-30.77 139-58.3 257-36.93 162-63.77 281-96.07 424-86 380-64.16 283-76.84 339-28.58 127-24.21 109-5.14 23-3.21 8.98-7.44 1.02h-660l-24-3.6-9.28-2.98-3.86-10.42-6.86-24-8.65-36-14.98-64-17.79-78-28.23-123-61.77-269-26.93-117-71-309-205-890-74-322-30.77-134-32.23-140-12.28-51-7.37-29v2603h-699v-103c-33.51 29.09-64.41 61.18-100 87.87-10.77 8.08-35.28 25.74-48 28.13v-388-146l1-14v-4l1-13 2-32c4.85 4.04 7.05 8.39 11.17 13 4.25 4.76 8.78 8.49 13.83 12.35 14.8 11.3 35.44 25.56 52 33.84 17.49 8.75 47.91 19.45 67 25.81V68h1033zM1616 3396.75l54-48.58c19.78-17.89 39.58-35.87 62-50.48 39.85-25.96 79.31-39.24 127-38.69l10 .91c16.81 1.23 31.83 4.43 48 9.09 32.62 9.4 69.88 24.53 91.48 52 9.35 11.88 7.92 22.94 12.61 36 6.27 17.48 22.72 36.74 38.91 45.69 17.93 9.91 34.85 12.93 55 14.4l10 .87 19-1.79 33-2.26 12-.91c11.25-.02 17.63.48 29-1.43 21.65-3.64 44.45-16.07 59.72-31.74 18.97-19.48 35.46-50.45 38.11-77.83.97-10.05-2.06-21.23-1.65-27l2.31-28-1.58-27-.91-10v-181l-.91-10-1.18-25-.91-12v-22l1-17c.02-14.74-.58-32.66-3.89-47-6.55-28.42-23.51-51.66-47.11-68.57-28.71-20.58-56.29-21.48-90-21.43l-22 1-14 1-30 1c-6.42.08-17.49 2.1-24 3.4-26.6 5.32-61.89 19.75-75.48 44.6-6.03 11.02-3.54 25.22-7.96 40-7.75 25.9-25.93 44.1-47.56 59.28-52.34 36.74-122.69 35.43-184 34.72l-17-1c-19.53-.23-53.35-6.53-72-12.67-22.35-7.36-43.26-18.17-64-29.11l-25-13.22v482c8.41-3.22 20.8-14.24 28-20.25z"/>
  <path stroke="#000" stroke-width="4.116" d="M942.105 3469.9576c-158.924-26.2502-284.3085-73.0062-417.362-155.6348-120.5802-74.8826-310.329-259.3093-407.5258-396.0956C41.2202 2811.2757 4.072 2754.148 4.072 2744.2294c0-7.0593 9.3373-18.9846 31.8988-40.74 50.0004-48.2142 46.1227-47.0038 74.0441-23.1127 29.0048 24.818 121.7522 93.2343 155.3674 114.6087 34.287 21.8016 173.0166 88.5801 220.7063 106.2386 112.5983 41.6927 215.7168 61.0799 328.8307 61.823 53.5952.3519 62.1331-.5935 83.7197-9.2716 57.6475-23.175 96.0343-61.6433 106.3602-106.586 7.121-30.9937 7.1052-490.1998-.0244-678.0699-2.7488-72.4412-6.7537-198.39-8.9-279.8863-2.1461-81.4964-5.8753-202.8148-8.287-269.5966-3.9528-109.4542-10.18-311.5888-20.6688-670.904-2.0155-69.0456-5.5602-190.364-7.8771-269.5965-2.317-79.2326-6.1209-192.2161-8.453-251.0746-6.9893-176.3878-6.0272-258.7455 3.3754-288.9562 14.4973-46.5758 63.6767-100.323 106.6987-116.6073 30.868-11.684 75.3497-15.1621 239.7419-18.746 120.2819-2.6222 136.2592-2.1955 158.465 4.2324 54.3852 15.7428 94.742 49.7978 118.5342 100.0249l13.1771 27.818-.5198 137.1726c-.4807 126.8508-2.9781 227.9292-14.001 566.6593-4.2362 130.1724-12.9816 420.5543-20.4538 679.136-2.2895 79.2326-6.9232 235.7426-10.2968 347.8-3.3738 112.0576-7.9822 266.7153-10.241 343.684-2.2587 76.9688-6.1614 195.509-8.6728 263.4226s-4.0037 161.4492-3.3163 207.8568c.6876 46.4076.8761 242.0014.419 434.6529l-.8311 350.2753-48.3628 2.627c-26.5995 1.4448-149.307 3.5413-272.6834 4.6587-181.8369 1.6468-231.0242.9243-259.7161-3.8149zM1564.027 3179.9283c0-156.016 1.1629-286.696 2.584-290.3995 2.3264-6.0624 3.4552-5.9428 11.319 1.1994 28.0337 25.4613 107.2265 66.6008 128.2054 66.6008 5.3335 0 6.0668-174.362 6.0668-1442.6497V72.0296h1036.2112l8.6597 38.0728c4.7629 20.94 41.8902 184.3957 82.5052 363.2349 92.07 405.4094 418.8054 1839.5987 474.0058 2080.626 22.553 98.4747 42.5584 182.7493 44.4568 187.2769l3.4516 8.232 2.4324-8.232c1.338-4.5276 15.4152-67.502 31.2828-139.9431 15.8677-72.4412 82.7573-376.2003 148.6435-675.0202 65.8862-298.8198 179.9367-816.5068 253.4454-1150.4154 159.3698-723.9279 152.552-694.5371 162.33-699.7702 4.876-2.6095 191.6365-4.0617 522.3571-4.0617h514.7676V3455.362h-691.484l-.2894-1297.5615c-.1588-713.6588-1.6116-1300.9145-3.2278-1305.0127-1.8584-4.7118-10.21 25.5518-22.7173 82.3196-10.8782 49.3738-45.6478 203.6803-77.2656 342.9031-116.7971 514.2927-380.058 1676.6815-434.404 1918.045-30.8381 136.9592-57.9122 251.3926-60.1649 254.2966-3.2867 4.2371-71.2431 5.05-344.0766 4.116-186.9896-.6403-343.1048-2.7063-346.9227-4.5911-8.4689-4.181-8.2012-3.0686-163.5592-679.825-153.9556-670.6478-425.8578-1851.8684-435.0648-1890.0454-3.9293-16.2933-8.6619-28.6862-10.5166-27.54-1.8547 1.1463-3.3722 587.2668-3.3722 1302.4899V3455.362h-691.484v-51.4497c0-28.2973-1.4031-51.4496-3.1181-51.4496s-19.7739 15.0524-40.1308 33.4498c-50.6464 45.7713-92.7918 77.6815-102.5977 77.6815-1.2807 0-2.3285-127.6496-2.3285-283.6658zm37.157 231.4929c5.5973-3.7935 26.8465-21.9897 47.2205-40.4361 94.1405-85.2336 139.2103-109.0739 206.2032-109.0739 25.758 0 85.731 14.8922 109.5254 27.1967 25.422 13.1463 47.5288 37.886 52.5474 58.8057 5.768 24.0441 23.8683 46.9388 46.8068 59.2053 15.8925 8.4986 22.044 9.102 87.4728 8.5805 62.4449-.4979 72.652-1.5646 90.5515-9.4641 27.36-12.0747 49.6492-34.4289 63.8762-64.0626l11.8564-24.6958-.2972-142.0011c-.1634-78.1007-1.6114-174.4808-3.2173-214.178-2.8485-70.4133-3.2283-72.7264-15.5409-94.6675-14.6626-26.1289-44.0952-50.3828-69.9124-57.6111-11.9742-3.3526-38.9194-4.3463-82.7262-3.051-54.9805 1.6259-68.7644 3.3809-89.6639 11.4168-34.1473 13.1296-53.4983 33.2105-57.42 59.5858-4.133 27.797-15.069 47.7751-35.923 65.6253-39.5635 33.8648-81.4255 44.963-170.0796 45.09-76.5263.1097-98.584-4.4637-157.9422-32.7477-25.7459-12.2679-47.5091-22.3053-48.3626-22.3053-.8536 0-1.552 109.2792-1.552 242.8427 0 133.5634 1.4401 242.8426 3.2002 242.8426 1.76 0 7.7796-3.1037 13.3769-6.8972z"/>
</svg>
