<svg xmlns="http://www.w3.org/2000/svg" version="1.0" viewBox="0 0 700 487">
  <defs/>
  <path d="M161 2c-11.5.7-14.8 1.9-20.3 7.4-4.9 4.9-7.1 10.1-7.5 18.1-.2 3.8 1.7 73.3 4.2 154.3 2.5 81 4.6 162.7 4.6 181.6v34.2l-2.6 5.2c-4.8 9.7-15.1 13.9-31.2 12.7-31.2-2.4-61.3-14.6-88.8-36.1l-8.1-6.3-5.3 5.4-5.3 5.4 4.3 6.8c10.7 17.2 31.6 42.4 44.3 53.6 27 23.7 53.4 36.6 83 40.6 8.9 1.2 34.2 1.4 62 .4l18.7-.6v-68.1c0-37.5.5-82.1 1-99.1.5-17.1 1.9-61.8 3-99.5s2.9-96.9 4-131.6c1.1-36 1.6-64.4 1.1-66.1-2.3-8-9.8-16-16.9-18.1C201 .9 179.4.8 161 2zM240 212c0 191.7-.1 202-1.7 202-2.5-.1-9.5-3.4-14.8-7l-4.5-3.1v40.6c0 38.3.1 40.5 1.8 39.6.9-.5 5.4-4.1 9.8-8 4.5-3.9 8.4-7.1 8.8-7.1.3 0 .6 3.1.6 7v7h97l.1-182.8V117.5L344 147c3.8 16.2 8.7 37.4 10.9 47 2.2 9.6 6.1 26.5 8.6 37.5 2.6 11 5.4 23.6 6.4 28 1.7 7.2 6.1 26.5 11.1 48 3.6 15.5 7 30.2 11.5 50 2.5 11 6.3 27.6 8.5 37 4.4 19 12.2 52.7 17.1 74.3l3.3 14.2h48.7c45.6 0 48.8-.1 49.3-1.7.5-1.7 6.6-28.3 10.6-46.3 1-4.7 3.5-15.5 5.4-24 11.2-49.4 13.9-61.1 15.1-66.5.7-3.3 3.6-16.1 6.5-28.5 2.8-12.4 7.1-31.3 9.5-42 2.4-10.7 7.4-32.6 11-48.5 3.6-16 8.3-36.7 10.4-46 10.9-48.2 14.1-61.8 14.6-62.3.3-.3.5 81.9.5 182.6V483h97V10H553.4l-2.1 9.7c-1.2 5.4-4.3 19.2-6.8 30.8C542 62 539.1 75.3 538 80c-1 4.7-3.1 13.9-4.5 20.5s-3.2 14.8-4 18.2c-.8 3.3-2.8 12.5-4.5 20.3-1.7 7.8-3.7 17-4.5 20.3-.8 3.4-2.6 11.6-4 18.2s-3.4 15.8-4.5 20.5c-1.1 4.7-4 17.7-6.4 29-2.5 11.3-8.4 38-13.1 59.5-4.7 21.4-10.6 48.2-13.1 59.5-6.2 28.3-8.7 39-9.1 38.6-.4-.4-3.3-12-6.3-25.6-1-4.7-3.7-16.6-6-26.5-2.3-9.9-5.2-22.7-6.5-28.5-1.3-5.8-4.5-19.5-7-30.5s-6.2-27-8.1-35.5c-1.9-8.5-4.1-18.2-4.8-21.5-.8-3.3-2.6-11.2-4-17.5-1.5-6.3-3.6-15.3-4.6-20-4.1-17.9-11.1-48.6-17.4-76.5-3.7-16-7.5-32.8-8.6-37.5-1-4.7-3.1-13.5-4.4-19.5-1.4-6.1-3.4-14.8-4.5-19.5-1.1-4.7-2.3-10.2-2.6-12.3l-.7-3.7H240v202zm76.3 184.3c6.8 5.1 6.9 5.8 7.5 38.2.4 27.8.4 29.2-1.6 33-2.4 4.8-5.7 8-9.5 9.4-4.4 1.7-20.3 1.4-23.8-.4-3.2-1.7-6.9-6.9-6.9-9.7 0-2.8-6.9-7.5-13.6-9.4-12.9-3.5-21.8-.4-36.3 12.6-4.9 4.4-9.2 8-9.5 8-.3 0-.6-15.1-.6-33.4v-33.5l6.3 2.9c21 9.9 49.5 4.5 51.4-9.7 1.1-8.1 8-11.4 23.4-11 8.8.2 9.9.4 13.2 3z"/>
</svg>
