<svg xmlns="http://www.w3.org/2000/svg" viewBox="0 0 225 225">
  <defs/>
  <path stroke="current" d="M55 44.67c33.19-11.16 81.81-11.16 115 0 23.07 7.75 40.92 20.96 41 47.33H14c.08-26.37 17.93-39.58 41-47.33zM23 102h192c2.07 0 5.83-.22 7.53 1.02 2.33 1.7 1.86 4.95-.79 6.24-1.81.88-5.67.74-7.74.74h-7c-20.24.24-34.41 20.92-51 19.91-7.06-.44-18.39-6.03-25-9.13-10.33-4.84-25.59-10.64-37-10.78H32 9c-4.42-.06-11.17-1.18-6.53-6.98C7.17 101.13 17.54 102 23 102zm34 15.23c14.95-.23 35.94-1.35 50 2.14 9.78 2.44 20.75 7.64 30 11.86 5.92 2.7 15.48 6.82 22 6.24 13.41-1.17 26.94-14.6 40-18.95 10.34-3.44 27.2-1.08 25.44 13.48-1.3 10.8-10.63 11.99-19.44 12H47l-36-.68C4.21 141.67-.3 136.13.56 129c.83-6.96 5.1-9.96 11.44-11.77h45zM211 153c-.46 20.2-19.27 26.84-36 30.87-10.5 2.53-26.18 4.11-37 4.13l-16 1h-19l-16-1c-10.32-.02-23.87-1.41-34-3.45-17.39-3.5-38.53-10.63-39-31.55h197z"/>
</svg>
